<?xml version="1.0" standalone="no"?>
<!DOCTYPE svg PUBLIC "-//W3C//DTD SVG 20010904//EN"
 "http://www.w3.org/TR/2001/REC-SVG-20010904/DTD/svg10.dtd">
<svg version="1.0" xmlns="http://www.w3.org/2000/svg"
 width="300.000000pt" height="300.000000pt" viewBox="0 0 300.000000 300.000000"
 preserveAspectRatio="xMidYMid meet">
<metadata>
Created by potrace 1.11, written by Peter Selinger 2001-2013
</metadata>
<g transform="translate(0.000000,300.000000) scale(0.100000,-0.100000)"
fill="#000000" stroke="none">
<path d="M40 1515 l0 -1455 1455 0 1455 0 0 1455 0 1455 -1455 0 -1455 0 0
-1455z m2870 0 l0 -1415 -1415 0 -1415 0 0 1415 0 1415 1415 0 1415 0 0 -1415z"/>
<path d="M1009 2371 c-1 -3 -2 -307 -3 -676 -3 -764 -1 -745 -85 -838 -64 -71
-204 -100 -310 -66 -87 28 -160 111 -176 202 l-7 37 -109 0 -109 0 0 -33 c0
-54 29 -149 63 -206 83 -138 246 -221 437 -221 273 0 457 143 505 392 11 58
14 211 15 743 l0 671 -110 0 c-60 0 -110 -2 -111 -5z"/>
<path d="M1560 1493 l0 -883 545 0 c300 0 546 3 546 8 1 4 2 49 3 100 l2 92
-438 0 -437 0 2 302 2 303 410 0 410 0 3 97 3 98 -413 2 -413 3 -3 274 c-1
162 2 277 7 280 5 4 201 6 435 6 279 0 427 3 429 10 2 5 3 51 3 100 l-1 90
-547 1 -548 1 0 -884z"/>
</g>
</svg>
